HIERARCHY
ROOT Hips
{
	OFFSET 0.000000 0.000000 0.000000 
	CHANNELS 6 Xposition Yposition Zposition Zrotation Yrotation Xrotation
	JOINT LeftUpLeg
	{
		OFFSET 1.363060 -1.794630 0.839290 
		CHANNELS 3 Zrotation Yrotation Xrotation
		JOINT LeftLeg
		{
			OFFSET 2.448110 -6.726130 0.000000 
			CHANNELS 3 Zrotation Yrotation Xrotation
			JOINT LeftFoot
			{
				OFFSET 2.562200 -7.039590 0.000000 
				CHANNELS 3 Zrotation Yrotation Xrotation
				JOINT LeftToeBase
				{
					OFFSET 0.157640 -0.433110 2.322550 
					CHANNELS 3 Zrotation Yrotation Xrotation
					End Site
					{
						OFFSET 0.000000 0.000000 0.000000 
					}
				}
			}
		}
	}
	JOINT RightUpLeg
	{
		OFFSET -1.305520 -1.794630 0.839290 
		CHANNELS 3 Zrotation Yrotation Xrotation
		JOINT RightLeg
		{
			OFFSET -2.542530 -6.985550 0.000000 
			CHANNELS 3 Zrotation Yrotation Xrotation
			JOINT RightFoot
			{
				OFFSET -2.568260 -7.056230 0.000000 
				CHANNELS 3 Zrotation Yrotation Xrotation
				JOINT RightToeBase
				{
					OFFSET -0.164730 -0.452590 2.363150 
					CHANNELS 3 Zrotation Yrotation Xrotation
					End Site
					{
						OFFSET 0.000000 0.000000 0.000000 
					}
				}
			}
		}
	}
	JOINT Spine
	{
		OFFSET 0.028270 2.035590 -0.193380 
		CHANNELS 3 Zrotation Yrotation Xrotation
		JOINT Spine1
		{
			OFFSET 0.056720 2.048850 -0.042750 
			CHANNELS 3 Zrotation Yrotation Xrotation
			JOINT Neck1
			{
				OFFSET -0.054170 1.746240 0.172020 
				CHANNELS 3 Zrotation Yrotation Xrotation
				JOINT Head
				{
					OFFSET 0.104070 1.761360 -0.123970 
					CHANNELS 3 Zrotation Yrotation Xrotation
					End Site
					{
						OFFSET 0.000000 0.000000 0.000000 
					}
				}
			}
			JOINT LeftArm
			{
				OFFSET 3.362410 1.200890 -0.311210 
				CHANNELS 3 Zrotation Yrotation Xrotation
				JOINT LeftForeArm
				{
					OFFSET 4.983000 -0.000000 -0.000000 
					CHANNELS 3 Zrotation Yrotation Xrotation
					JOINT LeftHand
					{
						OFFSET 3.483560 -0.000000 -0.000000 
						CHANNELS 3 Zrotation Yrotation Xrotation
						JOINT LeftHandIndex1
						{
							OFFSET 0.715260 -0.000000 -0.000000 
							CHANNELS 3 Zrotation Yrotation Xrotation
							End Site
							{
								OFFSET 0.000000 0.000000 0.000000 
							}
						}
					}
				}
			}
			JOINT RightArm
			{
				OFFSET -3.136600 1.374050 -0.404650 
				CHANNELS 3 Zrotation Yrotation Xrotation
				JOINT RightForeArm
				{
					OFFSET -5.241900 -0.000000 -0.000000 
					CHANNELS 3 Zrotation Yrotation Xrotation
					JOINT RightHand
					{
						OFFSET -3.444170 -0.000000 -0.000000 
						CHANNELS 3 Zrotation Yrotation Xrotation
						JOINT RightHandIndex1
						{
							OFFSET -0.622530 -0.000000 -0.000000 
							CHANNELS 3 Zrotation Yrotation Xrotation
							End Site
							{
								OFFSET 0.000000 0.000000 0.000000 
							}
						}
					}
				}
			}
		}
	}
}
MOTION
Frames: 9
Frame Time: 0.041667
11.596327 17.410624 -2.416958 -17.007349 -60.789201 11.461779 -11.104418 4.000792 -22.595691 -0.409821 7.245296 17.171254 -3.467744 15.108200 0.310173 0.385500 -3.987200 -11.040700 33.595018 -1.565291 7.015701 -0.645048 -9.287233 26.619537 -0.119234 -2.779283 -9.203325 -0.080000 1.824600 -5.021200 1.299035 0.008167 -0.667515 -4.405264 0.467774 7.166482 3.733919 -0.606294 21.115318 -1.525000 0.553300 10.706300 -79.071737 4.766209 9.131187 2.695457 -13.835123 -1.213010 -1.433668 -1.628746 -9.063678 -7.125000 0.000000 0.000000 69.428182 5.604511 40.417919 -17.542716 31.357373 -6.579945 1.451417 0.865121 -2.072794 7.125000 0.000000 0.000000 
11.494878 17.408574 -2.332346 -17.221627 -60.966274 11.640189 -11.052837 4.316440 -22.604744 -0.312531 7.432114 17.699919 -3.554503 15.454349 0.867058 0.385100 -3.985100 -11.034800 33.564764 -1.651719 7.156845 -0.755010 -9.456068 27.165963 -0.143182 -2.626707 -8.872335 -0.101200 2.050900 -5.646500 1.280601 0.056512 -0.661730 -4.430642 0.487955 7.158011 3.753644 -0.560894 21.136756 -1.496200 0.570100 10.716300 -79.039881 4.568347 9.265832 2.716585 -13.846449 -1.216141 -1.437506 -1.632655 -9.151112 -7.125000 0.000000 0.000000 69.547153 5.318347 40.634303 -17.496634 31.345531 -6.549024 1.445126 0.858960 -1.871156 7.125000 0.000000 0.000000 
11.394293 17.408466 -2.247841 -17.363115 -61.159788 11.734006 -11.033677 4.685154 -22.607887 -0.222462 7.602260 18.189475 -3.577920 15.618594 1.593002 0.360900 -3.859200 -10.680900 33.481767 -1.747067 7.224397 -0.894513 -9.672211 27.856519 -0.160330 -2.484287 -8.467090 -0.130500 2.328200 -6.413600 1.257725 0.114172 -0.652200 -4.454012 0.511653 7.150464 3.774411 -0.516036 21.151495 -1.465700 0.586200 10.722200 -78.988290 4.353595 9.510815 2.767954 -13.906014 -1.227003 -1.445272 -1.637613 -9.341470 -7.125000 0.000000 0.000000 69.696062 5.028366 40.791521 -17.420195 31.303949 -6.504378 1.441441 0.851724 -1.683694 7.125000 0.000000 0.000000 
11.295111 17.409761 -2.163984 -17.399247 -61.365473 11.720825 -11.086763 5.153270 -22.622319 -0.142726 7.753735 18.635035 -3.524402 15.566389 2.513473 0.320100 -3.636600 -10.056500 33.330109 -1.852871 7.187843 -1.071932 -9.946758 28.725618 -0.171319 -2.350870 -7.982595 -0.172000 2.671800 -7.366300 1.229783 0.177807 -0.640360 -4.473694 0.536312 7.139555 3.794795 -0.471060 21.159845 -1.434900 0.601800 10.725100 -78.916997 4.105775 9.746523 2.827446 -13.973644 -1.239599 -1.455093 -1.630852 -9.477218 -7.125000 0.000000 0.000000 69.871541 4.734060 40.898750 -17.312141 31.230787 -6.444879 1.440376 0.843979 -1.514782 7.125000 0.000000 0.000000 
11.197763 17.412891 -2.080883 -17.313679 -61.579034 11.596555 -11.237268 5.731091 -22.660529 -0.073640 7.889072 19.043109 -3.398927 15.314308 3.583980 0.270100 -3.343400 -9.236300 33.097262 -1.971091 7.014844 -1.293464 -10.285202 29.793277 -0.179816 -2.209745 -7.393224 -0.222900 3.039000 -8.387400 1.195473 0.246982 -0.628469 -4.498174 0.562503 7.117586 3.814977 -0.427994 21.162520 -1.405200 0.617000 10.725700 -78.820611 3.851891 10.059457 2.917467 -14.087937 -1.260441 -1.464676 -1.621132 -9.652620 -7.125000 0.000000 0.000000 70.073403 4.433454 40.956945 -17.174829 31.128330 -6.371868 1.440460 0.836304 -1.346555 7.125000 0.000000 0.000000 
11.102466 17.418071 -1.998537 -17.096554 -61.796326 11.363878 -11.490109 6.367369 -22.715250 -0.014804 8.011610 19.420007 -3.229010 14.938469 4.678785 0.225200 -3.054900 -8.431500 32.775244 -2.098817 6.683310 -1.563981 -10.687954 31.066022 -0.183444 -2.068997 -6.675590 -0.280700 3.407300 -9.414900 1.155065 0.317942 -0.618442 -4.525968 0.588042 7.080247 3.835122 -0.383730 21.159974 -1.376100 0.632900 10.723600 -78.703896 3.602973 10.430875 3.040401 -14.251773 -1.290530 -1.471139 -1.607926 -9.854878 -7.125000 0.000000 0.000000 70.296607 4.122997 40.980555 -17.010234 30.998277 -6.285848 1.441395 0.827718 -1.191725 7.125000 0.000000 0.000000 
11.009436 17.425518 -1.917270 -16.778666 -62.012333 11.058968 -11.818689 6.987239 -22.766349 0.035827 8.123965 19.770971 -3.051673 14.526627 5.630577 0.188500 -2.796100 -7.711700 32.381770 -2.223025 6.183283 -1.885153 -11.150377 32.534502 -0.174958 -1.954454 -5.808600 -0.335600 3.722800 -10.298100 1.110595 0.387007 -0.610307 -4.555756 0.611370 7.032264 3.852481 -0.335051 21.152333 -1.350300 0.651300 10.718400 -78.578047 3.360593 10.889211 3.212629 -14.489987 -1.335714 -1.474791 -1.605640 -10.134954 -7.125000 0.000000 0.000000 70.532354 3.814674 40.977234 -16.819996 30.840976 -6.187346 1.441326 0.819847 -1.046509 7.125000 0.000000 0.000000 
10.918780 17.434907 -1.837190 -16.356755 -62.223550 10.680145 -12.205765 7.512778 -22.780925 0.078784 8.226259 20.090640 -2.900933 14.164540 6.324779 0.160600 -2.582400 -7.118100 31.918558 -2.336716 5.518541 -2.258269 -11.663824 34.181401 -0.146575 -1.900325 -4.778244 -0.380200 3.960100 -10.964500 1.063215 0.452696 -0.603143 -4.578247 0.631433 6.979637 3.867573 -0.282846 21.139809 -1.327200 0.671700 10.709100 -78.449247 3.129250 11.455134 3.444921 -14.819084 -1.400272 -1.474885 -1.620901 -10.520892 -7.125000 0.000000 0.000000 70.779522 3.514080 40.924912 -16.606466 30.657820 -6.078853 1.439132 0.811647 -0.877395 7.125000 0.000000 0.000000 
10.830498 17.446239 -1.758298 -15.865624 -62.425003 10.254935 -12.613896 7.894315 -22.729893 0.115131 8.315962 20.368974 -2.800853 13.919767 6.730683 0.137800 -2.392200 -6.590700 31.413788 -2.419197 4.711326 -2.681857 -12.216855 35.978687 -0.086736 -1.960961 -3.597970 -0.405000 4.085700 -11.317900 1.015377 0.512849 -0.595228 -4.585863 0.646931 6.933118 3.879164 -0.225206 21.124074 -1.306200 0.694000 10.698100 -78.325314 2.893714 12.072873 3.726493 -15.218217 -1.481707 -1.469698 -1.644137 -10.974248 -7.125000 0.000000 0.000000 71.025716 3.233156 40.832418 -16.372219 30.450281 -5.961577 1.434831 0.804106 -0.693290 7.125000 0.000000 0.000000 
